<?xml version = "1.0" encoding = "utf-8" ?>
<svg width="1370" height="320">
	<g>
		<circle cx = "680" cy="20" r ="20" stroke="black" stroke-width="1" fill="white"/>
		<text fill="black" font-family="sans-serif" font-size="12" x="680" y="23">8</text>
		<text fill="black" font-family="sans-serif" font-size="10" x="705" y="20">4/-1</text>
		<line x1="660" y1="20" x2="340" y2="50" stroke="black" stroke-width="1"/>
 		<circle cx = "340" cy="60" r ="20" stroke="black" stroke-width="1" fill="white"/>
		<text fill="black" font-family="sans-serif" font-size="12" x="340" y="63">4</text>
		<text fill="black" font-family="sans-serif" font-size="10" x="365" y="60">2/0</text>
		<line x1="320" y1="60" x2="170" y2="90" stroke="black" stroke-width="1"/>
 		<circle cx = "170" cy="100" r ="20" stroke="black" stroke-width="1" fill="white"/>
		<text fill="black" font-family="sans-serif" font-size="12" x="170" y="103">2</text>
		<text fill="black" font-family="sans-serif" font-size="10" x="195" y="100">1/0</text>
		<line x1="150" y1="100" x2="85" y2="130" stroke="black" stroke-width="1"/>
 		<circle cx = "85" cy="140" r ="20" stroke="black" stroke-width="1" fill="white"/>
		<text fill="black" font-family="sans-serif" font-size="12" x="85" y="143">1</text>
		<text fill="black" font-family="sans-serif" font-size="10" x="110" y="140">0/0</text>
		<line x1="190" y1="100" x2="255" y2="130" stroke="black" stroke-width="1"/>
 		<circle cx = "255" cy="140" r ="20" stroke="black" stroke-width="1" fill="white"/>
		<text fill="black" font-family="sans-serif" font-size="12" x="255" y="143">3</text>
		<text fill="black" font-family="sans-serif" font-size="10" x="280" y="140">0/0</text>
		<line x1="360" y1="60" x2="510" y2="90" stroke="black" stroke-width="1"/>
 		<circle cx = "510" cy="100" r ="20" stroke="black" stroke-width="1" fill="white"/>
		<text fill="black" font-family="sans-serif" font-size="12" x="510" y="103">6</text>
		<text fill="black" font-family="sans-serif" font-size="10" x="535" y="100">1/0</text>
		<line x1="490" y1="100" x2="425" y2="130" stroke="black" stroke-width="1"/>
 		<circle cx = "425" cy="140" r ="20" stroke="black" stroke-width="1" fill="white"/>
		<text fill="black" font-family="sans-serif" font-size="12" x="425" y="143">5</text>
		<text fill="black" font-family="sans-serif" font-size="10" x="450" y="140">0/0</text>
		<line x1="530" y1="100" x2="595" y2="130" stroke="black" stroke-width="1"/>
 		<circle cx = "595" cy="140" r ="20" stroke="black" stroke-width="1" fill="white"/>
		<text fill="black" font-family="sans-serif" font-size="12" x="595" y="143">7</text>
		<text fill="black" font-family="sans-serif" font-size="10" x="620" y="140">0/0</text>
		<line x1="700" y1="20" x2="1020" y2="50" stroke="black" stroke-width="1"/>
 		<circle cx = "1020" cy="60" r ="20" stroke="black" stroke-width="1" fill="white"/>
		<text fill="black" font-family="sans-serif" font-size="12" x="1020" y="63">12</text>
		<text fill="black" font-family="sans-serif" font-size="10" x="1045" y="60"> 3/-1</text>
		<line x1="1000" y1="60" x2="850" y2="90" stroke="black" stroke-width="1"/>
 		<circle cx = "850" cy="100" r ="20" stroke="black" stroke-width="1" fill="white"/>
		<text fill="black" font-family="sans-serif" font-size="12" x="850" y="103">10</text>
		<text fill="black" font-family="sans-serif" font-size="10" x="875" y="100"> 1/0</text>
		<line x1="830" y1="100" x2="765" y2="130" stroke="black" stroke-width="1"/>
 		<circle cx = "765" cy="140" r ="20" stroke="black" stroke-width="1" fill="white"/>
		<text fill="black" font-family="sans-serif" font-size="12" x="765" y="143">9</text>
		<text fill="black" font-family="sans-serif" font-size="10" x="790" y="140">0/0</text>
		<line x1="870" y1="100" x2="935" y2="130" stroke="black" stroke-width="1"/>
 		<circle cx = "935" cy="140" r ="20" stroke="black" stroke-width="1" fill="white"/>
		<text fill="black" font-family="sans-serif" font-size="12" x="935" y="143">11</text>
		<text fill="black" font-family="sans-serif" font-size="10" x="960" y="140"> 0/0</text>
		<line x1="1040" y1="60" x2="1190" y2="90" stroke="black" stroke-width="1"/>
 		<circle cx = "1190" cy="100" r ="20" stroke="black" stroke-width="1" fill="white"/>
		<text fill="black" font-family="sans-serif" font-size="12" x="1190" y="103">14</text>
		<text fill="black" font-family="sans-serif" font-size="10" x="1215" y="100"> 2/-1</text>
		<line x1="1170" y1="100" x2="1105" y2="130" stroke="black" stroke-width="1"/>
 		<circle cx = "1105" cy="140" r ="20" stroke="black" stroke-width="1" fill="white"/>
		<text fill="black" font-family="sans-serif" font-size="12" x="1105" y="143">13</text>
		<text fill="black" font-family="sans-serif" font-size="10" x="1130" y="140"> 0/0</text>
		<line x1="1210" y1="100" x2="1275" y2="130" stroke="black" stroke-width="1"/>
 		<circle cx = "1275" cy="140" r ="20" stroke="black" stroke-width="1" fill="white"/>
		<text fill="black" font-family="sans-serif" font-size="12" x="1275" y="143">16</text>
		<text fill="black" font-family="sans-serif" font-size="10" x="1300" y="140"> 1/0</text>
		<line x1="1255" y1="140" x2="1233" y2="170" stroke="black" stroke-width="1"/>
 		<circle cx = "1233" cy="180" r ="20" stroke="black" stroke-width="1" fill="white"/>
		<text fill="black" font-family="sans-serif" font-size="12" x="1233" y="183">15</text>
		<text fill="black" font-family="sans-serif" font-size="10" x="1258" y="180"> 0/0</text>
		<line x1="1295" y1="140" x2="1317" y2="170" stroke="black" stroke-width="1"/>
 		<circle cx = "1317" cy="180" r ="20" stroke="black" stroke-width="1" fill="white"/>
		<text fill="black" font-family="sans-serif" font-size="12" x="1317" y="183">1700</text>
		<text fill="black" font-family="sans-serif" font-size="10" x="1342" y="180">00 0/0</text>
	</g>
</svg>
