<?xml version = "1.0" encoding = "utf-8" ?>
<svg width="1360" height="400">
	<g>
		<circle cx = "680" cy="20" r ="20" stroke="black" stroke-width="1" fill="black"/>
		<text fill="white" font-family="sans-serif" text-anchor = "high" font-size="12" x="680" y="23">4</text>
		<line x1="660" y1="20" x2="340" y2="50" stroke="black" stroke-width="3"/>
 		<circle cx = "340" cy="60" r ="20" stroke="black" stroke-width="1" fill="black"/>
		<text fill="white" font-family="sans-serif" text-anchor = "high" font-size="12" x="340" y="63">2</text>
		<line x1="320" y1="60" x2="170" y2="90" stroke="black" stroke-width="3"/>
 		<circle cx = "170" cy="100" r ="20" stroke="black" stroke-width="1" fill="black"/>
		<text fill="white" font-family="sans-serif" text-anchor = "high" font-size="12" x="170" y="103">1</text>
		<line x1="360" y1="60" x2="510" y2="90" stroke="black" stroke-width="3"/>
 		<circle cx = "510" cy="100" r ="20" stroke="black" stroke-width="1" fill="black"/>
		<text fill="white" font-family="sans-serif" text-anchor = "high" font-size="12" x="510" y="103">3</text>
		<line x1="700" y1="20" x2="1020" y2="50" stroke="black" stroke-width="3"/>
 		<circle cx = "1020" cy="60" r ="20" stroke="black" stroke-width="1" fill="red"/>
		<text fill="white" font-family="sans-serif" text-anchor = "high" font-size="12" x="1020" y="63">8</text>
		<line x1="1000" y1="60" x2="850" y2="90" stroke="black" stroke-width="3"/>
 		<circle cx = "850" cy="100" r ="20" stroke="black" stroke-width="1" fill="black"/>
		<text fill="white" font-family="sans-serif" text-anchor = "high" font-size="12" x="850" y="103">6</text>
		<line x1="830" y1="100" x2="765" y2="130" stroke="black" stroke-width="3"/>
 		<circle cx = "765" cy="140" r ="20" stroke="black" stroke-width="1" fill="black"/>
		<text fill="white" font-family="sans-serif" text-anchor = "high" font-size="12" x="765" y="143">5</text>
		<line x1="870" y1="100" x2="935" y2="130" stroke="black" stroke-width="3"/>
 		<circle cx = "935" cy="140" r ="20" stroke="black" stroke-width="1" fill="black"/>
		<text fill="white" font-family="sans-serif" text-anchor = "high" font-size="12" x="935" y="143">7</text>
		<line x1="1040" y1="60" x2="1190" y2="90" stroke="black" stroke-width="3"/>
 		<circle cx = "1190" cy="100" r ="20" stroke="black" stroke-width="1" fill="black"/>
		<text fill="white" font-family="sans-serif" text-anchor = "high" font-size="12" x="1190" y="103">12</text>
		<line x1="1170" y1="100" x2="1105" y2="130" stroke="black" stroke-width="3"/>
 		<circle cx = "1105" cy="140" r ="20" stroke="black" stroke-width="1" fill="red"/>
		<text fill="white" font-family="sans-serif" text-anchor = "high" font-size="12" x="1105" y="143">10</text>
		<line x1="1085" y1="140" x2="1063" y2="170" stroke="black" stroke-width="3"/>
 		<circle cx = "1063" cy="180" r ="20" stroke="black" stroke-width="1" fill="black"/>
		<text fill="white" font-family="sans-serif" text-anchor = "high" font-size="12" x="1063" y="183">9</text>
		<line x1="1125" y1="140" x2="1147" y2="170" stroke="black" stroke-width="3"/>
 		<circle cx = "1147" cy="180" r ="20" stroke="black" stroke-width="1" fill="black"/>
		<text fill="white" font-family="sans-serif" text-anchor = "high" font-size="12" x="1147" y="183">11</text>
		<line x1="1210" y1="100" x2="1275" y2="130" stroke="black" stroke-width="3"/>
 		<circle cx = "1275" cy="140" r ="20" stroke="black" stroke-width="1" fill="red"/>
		<text fill="white" font-family="sans-serif" text-anchor = "high" font-size="12" x="1275" y="143">14</text>
		<line x1="1255" y1="140" x2="1233" y2="170" stroke="black" stroke-width="3"/>
 		<circle cx = "1233" cy="180" r ="20" stroke="black" stroke-width="1" fill="black"/>
		<text fill="white" font-family="sans-serif" text-anchor = "high" font-size="12" x="1233" y="183">13</text>
		<line x1="1295" y1="140" x2="1317" y2="170" stroke="black" stroke-width="3"/>
 		<circle cx = "1317" cy="180" r ="20" stroke="black" stroke-width="1" fill="black"/>
		<text fill="white" font-family="sans-serif" text-anchor = "high" font-size="12" x="1317" y="183">16</text>
		<line x1="1297" y1="180" x2="1296" y2="210" stroke="black" stroke-width="3"/>
 		<circle cx = "1296" cy="220" r ="20" stroke="black" stroke-width="1" fill="red"/>
		<text fill="white" font-family="sans-serif" text-anchor = "high" font-size="12" x="1296" y="223">15</text>
		<line x1="1337" y1="180" x2="1338" y2="210" stroke="black" stroke-width="3"/>
 		<circle cx = "1338" cy="220" r ="20" stroke="black" stroke-width="1" fill="red"/>
		<text fill="white" font-family="sans-serif" text-anchor = "high" font-size="12" x="1338" y="223">17</text>
	</g>
</svg>
