<?xml version = "1.0" encoding = "utf-8" ?>
<svg width="100" height="520">
	<g>
		<rect x="10" y="5" width="80" height="30" style="fill:white;stroke:black;stroke.width:1"/>
		<text fill="black" font-family="sans-serif" font-size="10" x="45" y="25">17</text>
		<rect x="10" y="35" width="80" height="30" style="fill:white;stroke:black;stroke.width:1"/>
		<text fill="black" font-family="sans-serif" font-size="10" x="45" y="55">16</text>
		<rect x="10" y="65" width="80" height="30" style="fill:white;stroke:black;stroke.width:1"/>
		<text fill="black" font-family="sans-serif" font-size="10" x="45" y="85">15</text>
		<rect x="10" y="95" width="80" height="30" style="fill:white;stroke:black;stroke.width:1"/>
		<text fill="black" font-family="sans-serif" font-size="10" x="45" y="115">14</text>
		<rect x="10" y="125" width="80" height="30" style="fill:white;stroke:black;stroke.width:1"/>
		<text fill="black" font-family="sans-serif" font-size="10" x="45" y="145">13</text>
		<rect x="10" y="155" width="80" height="30" style="fill:white;stroke:black;stroke.width:1"/>
		<text fill="black" font-family="sans-serif" font-size="10" x="45" y="175">12</text>
		<rect x="10" y="185" width="80" height="30" style="fill:white;stroke:black;stroke.width:1"/>
		<text fill="black" font-family="sans-serif" font-size="10" x="45" y="205">11</text>
		<rect x="10" y="215" width="80" height="30" style="fill:white;stroke:black;stroke.width:1"/>
		<text fill="black" font-family="sans-serif" font-size="10" x="45" y="235">10</text>
		<rect x="10" y="245" width="80" height="30" style="fill:white;stroke:black;stroke.width:1"/>
		<text fill="black" font-family="sans-serif" font-size="10" x="45" y="265">9</text>
		<rect x="10" y="275" width="80" height="30" style="fill:white;stroke:black;stroke.width:1"/>
		<text fill="black" font-family="sans-serif" font-size="10" x="45" y="295">8</text>
		<rect x="10" y="305" width="80" height="30" style="fill:white;stroke:black;stroke.width:1"/>
		<text fill="black" font-family="sans-serif" font-size="10" x="45" y="325">7</text>
		<rect x="10" y="335" width="80" height="30" style="fill:white;stroke:black;stroke.width:1"/>
		<text fill="black" font-family="sans-serif" font-size="10" x="45" y="355">6</text>
		<rect x="10" y="365" width="80" height="30" style="fill:white;stroke:black;stroke.width:1"/>
		<text fill="black" font-family="sans-serif" font-size="10" x="45" y="385">5</text>
		<rect x="10" y="395" width="80" height="30" style="fill:white;stroke:black;stroke.width:1"/>
		<text fill="black" font-family="sans-serif" font-size="10" x="45" y="415">4</text>
		<rect x="10" y="425" width="80" height="30" style="fill:white;stroke:black;stroke.width:1"/>
		<text fill="black" font-family="sans-serif" font-size="10" x="45" y="445">3</text>
		<rect x="10" y="455" width="80" height="30" style="fill:white;stroke:black;stroke.width:1"/>
		<text fill="black" font-family="sans-serif" font-size="10" x="45" y="475">2</text>
		<rect x="10" y="485" width="80" height="30" style="fill:white;stroke:black;stroke.width:1"/>
		<text fill="black" font-family="sans-serif" font-size="10" x="45" y="505">1</text>
	</g>
</svg>
